<?xml version="1.0" encoding="UTF-8"?>
<svg xmlns="http://www.w3.org/2000/svg" xmlns:xlink="http://www.w3.org/1999/xlink" width="24pt" height="24pt" viewBox="0 0 24 24" version="1.1">
<g id="surface1">
<path style=" stroke:none;fill-rule:nonzero;fill:rgb(98.823529%,63.921569%,14.901961%);fill-opacity:1;" d="M 2.472656 9.632812 L 11.996094 22.011719 L 1.558594 14.261719 C 1.269531 14.046875 1.148438 13.671875 1.257812 13.335938 Z M 2.472656 9.632812 "/>
<path style=" stroke:none;fill-rule:nonzero;fill:rgb(98.823529%,42.745098%,14.901961%);fill-opacity:1;" d="M 8.03125 9.632812 L 12 22.007812 L 11.996094 22.011719 L 2.472656 9.632812 Z M 8.03125 9.632812 "/>
<path style=" stroke:none;fill-rule:nonzero;fill:rgb(88.627451%,26.27451%,16.078431%);fill-opacity:1;" d="M 15.972656 9.632812 L 12 22.011719 L 12 22.007812 L 8.03125 9.632812 Z M 15.972656 9.632812 "/>
<path style=" stroke:none;fill-rule:nonzero;fill:rgb(98.823529%,42.745098%,14.901961%);fill-opacity:1;" d="M 21.53125 9.632812 L 12 22.011719 L 15.972656 9.632812 Z M 21.53125 9.632812 "/>
<path style=" stroke:none;fill-rule:nonzero;fill:rgb(98.823529%,63.921569%,14.901961%);fill-opacity:1;" d="M 22.742188 13.335938 C 22.847656 13.671875 22.730469 14.046875 22.441406 14.261719 L 12 22.011719 L 21.53125 9.632812 Z M 22.742188 13.335938 "/>
<path style=" stroke:none;fill-rule:nonzero;fill:rgb(88.627451%,26.27451%,16.078431%);fill-opacity:1;" d="M 19.148438 2.269531 L 21.527344 9.632812 L 15.96875 9.632812 L 18.351562 2.269531 C 18.484375 1.894531 19.015625 1.894531 19.148438 2.269531 Z M 19.148438 2.269531 "/>
<path style=" stroke:none;fill-rule:nonzero;fill:rgb(88.627451%,26.27451%,16.078431%);fill-opacity:1;" d="M 8.035156 9.632812 L 2.476562 9.632812 L 4.855469 2.269531 C 4.988281 1.894531 5.519531 1.894531 5.652344 2.269531 C 5.652344 2.269531 8.03125 9.632812 8.035156 9.632812 Z M 8.035156 9.632812 "/>
</g>
</svg>
