<?xml version="1.0" encoding="UTF-8"?>
<svg xmlns="http://www.w3.org/2000/svg" xmlns:xlink="http://www.w3.org/1999/xlink" width="24pt" height="24pt"
     viewBox="0 0 24 24" version="1.1">
    <g id="surface1">
        <path style=" stroke:none;fill-rule:evenodd;fill:rgb(255,255,255);fill-opacity:1;"
              d="M 12.003906 0 C 5.378906 0 0.0078125 5.371094 0.0078125 11.996094 C 0.0078125 17.296875 3.441406 21.796875 8.210938 23.382812 C 8.8125 23.492188 9 23.136719 9 22.816406 C 9 22.53125 9.007812 21.738281 9 20.734375 C 5.664062 21.460938 4.972656 19.15625 4.972656 19.15625 C 4.425781 17.769531 3.640625 17.398438 3.640625 17.398438 C 2.550781 16.65625 3.722656 16.671875 3.722656 16.671875 C 4.925781 16.753906 5.558594 17.90625 5.558594 17.90625 C 6.628906 19.738281 8.367188 19.210938 9.050781 18.902344 C 9.160156 18.128906 9.472656 17.597656 9.8125 17.300781 C 7.148438 16.996094 4.347656 15.96875 4.347656 11.371094 C 4.347656 10.058594 4.816406 8.988281 5.582031 8.152344 C 5.460938 7.847656 5.046875 6.628906 5.703125 4.976562 C 5.703125 4.976562 6.707031 4.652344 9 6.207031 C 9.957031 5.941406 10.984375 5.808594 12.003906 5.804688 C 13.023438 5.808594 14.050781 5.941406 15.007812 6.207031 C 17.296875 4.652344 18.304688 4.976562 18.304688 4.976562 C 18.957031 6.628906 18.546875 7.847656 18.421875 8.152344 C 19.191406 8.988281 19.65625 10.058594 19.65625 11.371094 C 19.65625 15.980469 16.851562 16.992188 14.179688 17.289062 C 14.609375 17.660156 15 18.382812 15 19.5 C 15 21 15 22.425781 15 22.820312 C 15 23.140625 15.195312 23.496094 15.800781 23.378906 C 20.566406 21.792969 24 17.296875 24 11.996094 C 24 5.371094 18.628906 0 12.003906 0 Z M 12.003906 0 "/>
    </g>
</svg>
