<?xml version="1.0" encoding="UTF-8"?>
<svg xmlns="http://www.w3.org/2000/svg" xmlns:xlink="http://www.w3.org/1999/xlink" width="32px" height="32px" viewBox="0 0 24 24" version="1.1">
<g id="surface1">
<path style=" stroke:none;fill-rule:nonzero;fill:rgb(100%,100%,100%);fill-opacity:1;" d="M 12 0 C 5.371094 0 0 5.371094 0 12 C 0 18.628906 5.371094 24 12 24 C 18.628906 24 24 18.628906 24 12 C 24 5.371094 18.628906 0 12 0 Z M 12 0 "/>
<path style=" stroke:none;fill-rule:nonzero;fill:rgb(20%,20%,20%);fill-opacity:1;" d="M 4.886719 16.359375 L 8.78125 11.46875 L 4.886719 9.089844 Z M 4.886719 16.359375 "/>
<path style=" stroke:none;fill-rule:nonzero;fill:rgb(20%,20%,20%);fill-opacity:1;" d="M 14.625 11.808594 L 11.992188 13.429688 L 9.355469 11.820312 L 5.332031 16.875 L 18.648438 16.875 Z M 14.625 11.808594 "/>
<path style=" stroke:none;fill-rule:nonzero;fill:rgb(20%,20%,20%);fill-opacity:1;" d="M 11.992188 12.648438 L 19.113281 8.261719 L 19.113281 7.125 L 4.886719 7.125 L 4.886719 8.308594 Z M 11.992188 12.648438 "/>
<path style=" stroke:none;fill-rule:nonzero;fill:rgb(20%,20%,20%);fill-opacity:1;" d="M 15.195312 11.457031 L 19.113281 16.382812 L 19.113281 9.046875 Z M 15.195312 11.457031 "/>
</g>
</svg>
