<!--<svg width="24" height="24" class="tanuki-logo" viewBox="0 0 36 36">-->
<!--  <path class="tanuki-shape tanuki-left-ear" fill="#e24329" d="M2 14l9.38 9v-9l-4-12.28c-.205-.632-1.176-.632-1.38 0z"></path>-->
<!--  <path class="tanuki-shape tanuki-right-ear" fill="#e24329" d="M34 14l-9.38 9v-9l4-12.28c.205-.632 1.176-.632 1.38 0z"></path>-->
<!--  <path class="tanuki-shape tanuki-nose" fill="#e24329" d="M18,34.38 3,14 33,14 Z"></path>-->
<!--  <path class="tanuki-shape tanuki-left-eye" fill="#fc6d26" d="M18,34.38 11.38,14 2,14 6,25Z"></path>-->
<!--  <path class="tanuki-shape tanuki-right-eye" fill="#fc6d26" d="M18,34.38 24.62,14 34,14 30,25Z"></path>-->
<!--  <path class="tanuki-shape tanuki-left-cheek" fill="#fca326" d="M2 14L.1 20.16c-.18.565 0 1.2.5 1.56l17.42 12.66z"></path>-->
<!--  <path class="tanuki-shape tanuki-right-cheek" fill="#fca326" d="M34 14l1.9 6.16c.18.565 0 1.2-.5 1.56L18 34.38z"></path>-->
<!--</svg>-->

<?xml version="1.0" ?><!DOCTYPE svg  PUBLIC '-//W3C//DTD SVG 1.1//EN'
        'http://www.w3.org/Graphics/SVG/1.1/DTD/svg11.dtd'>
<svg height="512px" style="enable-background:new 0 0 512 512;" version="1.1" viewBox="0 0 512 512" width="512px"
     xml:space="preserve" xmlns="http://www.w3.org/2000/svg" xmlns:xlink="http://www.w3.org/1999/xlink">
    <g id="_x31_44-gitlab"><g>
        <g id="XMLID_6_">
            <g><g>
                <path d="M52.752,205.501l203.18,264.07l-222.7-165.29c-6.11-4.59-8.72-12.58-6.38-19.771l25.87-79.05       L52.752,205.501z" style="fill:#FCA326;"/></g>
                <g><polygon points="171.302,205.461 256.012,469.541 255.932,469.571 52.752,205.501 52.812,205.461             " style="fill:#FC6D26;"/></g>
                <g><polygon points="340.731,205.461 256.021,469.571 256.012,469.541 171.302,205.461 171.392,205.461        340.642,205.461      " style="fill:#E24329;"/></g>
                <g><polygon points="459.292,205.501 256.021,469.571 340.731,205.461 459.231,205.461      " style="fill:#FC6D26;"/></g><g>
                <path d="M485.191,284.511c2.24,7.19-0.27,15.181-6.47,19.771l-222.7,165.29l203.271-264.07l0.029-0.04       L485.191,284.511z" style="fill:#FCA326;"/></g><g>
                <path d="M408.472,48.421l50.76,157.04h-118.5h-0.09l50.85-157.04       C394.361,40.431,405.682,40.431,408.472,48.421z" style="fill:#E24329;"/></g><g>
                <path d="M171.392,205.461h-0.09H52.812l50.76-157.04c2.87-7.99,14.19-7.99,16.98,0       C120.552,48.421,171.302,205.461,171.392,205.461z" style="fill:#E24329;"/></g></g></g></g></g>
    <g id="Layer_1"/>
</svg>