<svg width="0" height="0" class="hidden">
  <symbol id="work" viewBox="0 -960 960 960" xmlns="http://www.w3.org/2000/svg">
    <path fill="currentColor" class="path"
      d="M160-120q-33 0-56.5-23.5T80-200v-440q0-33 23.5-56.5T160-720h160v-80q0-33 23.5-56.5T400-880h160q33 0 56.5 23.5T640-800v80h160q33 0 56.5 23.5T880-640v440q0 33-23.5 56.5T800-120H160Zm0-80h640v-440H160v440Zm240-520h160v-80H400v80ZM160-200v-440 440Z" />
  </symbol>
  <symbol id="school" viewBox="0 -960 960 960" xmlns="http://www.w3.org/2000/svg">
    <path fill="currentColor" class="path"
      d="M480-120 200-272v-240L40-600l440-240 440 240v320h-80v-276l-80 44v240L480-120Zm0-332 274-148-274-148-274 148 274 148Zm0 241 200-108v-151L480-360 280-470v151l200 108Zm0-241Zm0 90Zm0 0Z" />
  </symbol>
  <symbol id="mail" viewBox="0 -960 960 960" xmlns="http://www.w3.org/2000/svg">
    <path fill="currentColor" class="path"
      d="M160-160q-33 0-56.5-23.5T80-240v-480q0-33 23.5-56.5T160-800h640q33 0 56.5 23.5T880-720v480q0 33-23.5 56.5T800-160H160Zm320-280L160-640v400h640v-400L480-440Zm0-80 320-200H160l320 200ZM160-640v-80 480-400Z" />
  </symbol>
  <symbol id="location" viewBox="0 -960 960 960" xmlns="http://www.w3.org/2000/svg">
    <path fill="currentColor" class="path"
      d="M480-480q33 0 56.5-23.5T560-560q0-33-23.5-56.5T480-640q-33 0-56.5 23.5T400-560q0 33 23.5 56.5T480-480Zm0 294q122-112 181-203.5T720-552q0-109-69.5-178.5T480-800q-101 0-170.5 69.5T240-552q0 71 59 162.5T480-186Zm0 106Q319-217 239.5-334.5T160-552q0-150 96.5-239T480-880q127 0 223.5 89T800-552q0 100-79.5 217.5T480-80Zm0-480Z" />
  </symbol>
  <symbol id="github" viewBox="0 0 512 512" xmlns="http://www.w3.org/2000/svg">
    <path clip-rule="evenodd" class="path"
      d="M296.133,354.174c49.885-5.891,102.942-24.029,102.942-110.192   c0-24.49-8.624-44.448-22.67-59.869c2.266-5.89,9.515-28.114-2.734-58.947c0,0-18.139-5.898-60.759,22.669   c-18.139-4.983-38.09-8.163-56.682-8.163c-19.053,0-39.011,3.18-56.697,8.163c-43.082-28.567-61.22-22.669-61.22-22.669   c-12.241,30.833-4.983,53.057-2.718,58.947c-14.061,15.42-22.677,35.379-22.677,59.869c0,86.163,53.057,104.301,102.942,110.192   c-6.344,5.452-12.241,15.873-14.507,30.387c-12.702,5.438-45.808,15.873-65.758-18.592c0,0-11.795-21.31-34.012-22.669   c0,0-22.224-0.453-1.813,13.592c0,0,14.96,6.812,24.943,32.653c0,0,13.6,43.089,76.179,29.48v38.543   c0,5.906-4.53,12.702-15.865,10.89C96.139,438.977,32.2,354.626,32.2,255.77c0-123.807,100.216-224.022,224.03-224.022   c123.347,0,224.023,100.216,223.57,224.022c0,98.856-63.946,182.754-152.828,212.688c-11.342,2.266-15.873-4.53-15.873-10.89   V395.45C311.1,374.577,304.288,360.985,296.133,354.174L296.133,354.174z M512,256.23C512,114.73,397.263,0,256.23,0   C114.73,0,0,114.73,0,256.23C0,397.263,114.73,512,256.23,512C397.263,512,512,397.263,512,256.23L512,256.23z"
      fill="#0D2636" fill-rule="evenodd" />
  </symbol>
  <symbol id="calendar" viewBox="0 -960 960 960" xmlns="http://www.w3.org/2000/svg">
    <path fill="currentColor" class="path"
      d="M200-80q-33 0-56.5-23.5T120-160v-560q0-33 23.5-56.5T200-800h40v-80h80v80h320v-80h80v80h40q33 0 56.5 23.5T840-720v560q0 33-23.5 56.5T760-80H200Zm0-80h560v-400H200v400Zm0-480h560v-80H200v80Zm0 0v-80 80Zm280 240q-17 0-28.5-11.5T440-440q0-17 11.5-28.5T480-480q17 0 28.5 11.5T520-440q0 17-11.5 28.5T480-400Zm-160 0q-17 0-28.5-11.5T280-440q0-17 11.5-28.5T320-480q17 0 28.5 11.5T360-440q0 17-11.5 28.5T320-400Zm320 0q-17 0-28.5-11.5T600-440q0-17 11.5-28.5T640-480q17 0 28.5 11.5T680-440q0 17-11.5 28.5T640-400ZM480-240q-17 0-28.5-11.5T440-280q0-17 11.5-28.5T480-320q17 0 28.5 11.5T520-280q0 17-11.5 28.5T480-240Zm-160 0q-17 0-28.5-11.5T280-280q0-17 11.5-28.5T320-320q17 0 28.5 11.5T360-280q0 17-11.5 28.5T320-240Zm320 0q-17 0-28.5-11.5T600-280q0-17 11.5-28.5T640-320q17 0 28.5 11.5T680-280q0 17-11.5 28.5T640-240Z" />
  </symbol>
  <symbol id="linkedin" xmlns="http://www.w3.org/2000/svg">
    <g xmlns="http://www.w3.org/2000/svg" fill="none" fill-rule="evenodd">
      <path
        d="M8,72 L64,72 C68.418278,72 72,68.418278 72,64 L72,8 C72,3.581722 68.418278,-8.11624501e-16 64,0 L8,0 C3.581722,8.11624501e-16 -5.41083001e-16,3.581722 0,8 L0,64 C5.41083001e-16,68.418278 3.581722,72 8,72 Z"
        fill="#007EBB" />
      <path
        d="M62,62 L51.315625,62 L51.315625,43.8021149 C51.315625,38.8127542 49.4197917,36.0245323 45.4707031,36.0245323 C41.1746094,36.0245323 38.9300781,38.9261103 38.9300781,43.8021149 L38.9300781,62 L28.6333333,62 L28.6333333,27.3333333 L38.9300781,27.3333333 L38.9300781,32.0029283 C38.9300781,32.0029283 42.0260417,26.2742151 49.3825521,26.2742151 C56.7356771,26.2742151 62,30.7644705 62,40.051212 L62,62 Z M16.349349,22.7940133 C12.8420573,22.7940133 10,19.9296567 10,16.3970067 C10,12.8643566 12.8420573,10 16.349349,10 C19.8566406,10 22.6970052,12.8643566 22.6970052,16.3970067 C22.6970052,19.9296567 19.8566406,22.7940133 16.349349,22.7940133 Z M11.0325521,62 L21.769401,62 L21.769401,27.3333333 L11.0325521,27.3333333 L11.0325521,62 Z"
        fill="#FFF" />
    </g>
  </symbol>
  <symbo id="telegram" viewBox="0 0 512 512">
    <path
      d="M484.689,98.231l-69.417,327.37c-5.237,23.105-18.895,28.854-38.304,17.972L271.2,365.631     l-51.034,49.086c-5.646,5.647-10.371,10.372-21.256,10.372l7.598-107.722L402.539,140.23c8.523-7.598-1.848-11.809-13.247-4.21     L146.95,288.614L42.619,255.96c-22.694-7.086-23.104-22.695,4.723-33.579L455.423,65.166     C474.316,58.081,490.85,69.375,484.689,98.231z"
      style="fill:#20A0E1;" />
  </symbo>
  <style>
    @media (prefers-color-scheme: dark) {
    .path { fill: #f0f0f0 }
    }
</style>
</svg>