<svg width="0" height="0" class="hidden">
  <symbol id="work" viewBox="0 -960 960 960" xmlns="http://www.w3.org/2000/svg">
    <path fill="currentColor" class="path"
      d="M160-120q-33 0-56.5-23.5T80-200v-440q0-33 23.5-56.5T160-720h160v-80q0-33 23.5-56.5T400-880h160q33 0 56.5 23.5T640-800v80h160q33 0 56.5 23.5T880-640v440q0 33-23.5 56.5T800-120H160Zm0-80h640v-440H160v440Zm240-520h160v-80H400v80ZM160-200v-440 440Z" />
  </symbol>
  <symbol id="school" viewBox="0 -960 960 960" xmlns="http://www.w3.org/2000/svg">
    <path fill="currentColor" class="path"
      d="M480-120 200-272v-240L40-600l440-240 440 240v320h-80v-276l-80 44v240L480-120Zm0-332 274-148-274-148-274 148 274 148Zm0 241 200-108v-151L480-360 280-470v151l200 108Zm0-241Zm0 90Zm0 0Z" />
  </symbol>
  <symbol id="mail" viewBox="0 -960 960 960" xmlns="http://www.w3.org/2000/svg">
    <path fill="currentColor" class="path"
      d="M160-160q-33 0-56.5-23.5T80-240v-480q0-33 23.5-56.5T160-800h640q33 0 56.5 23.5T880-720v480q0 33-23.5 56.5T800-160H160Zm320-280L160-640v400h640v-400L480-440Zm0-80 320-200H160l320 200ZM160-640v-80 480-400Z" />
  </symbol>
  <symbol id="location" viewBox="0 -960 960 960" xmlns="http://www.w3.org/2000/svg">
    <path fill="currentColor" class="path"
      d="M480-480q33 0 56.5-23.5T560-560q0-33-23.5-56.5T480-640q-33 0-56.5 23.5T400-560q0 33 23.5 56.5T480-480Zm0 294q122-112 181-203.5T720-552q0-109-69.5-178.5T480-800q-101 0-170.5 69.5T240-552q0 71 59 162.5T480-186Zm0 106Q319-217 239.5-334.5T160-552q0-150 96.5-239T480-880q127 0 223.5 89T800-552q0 100-79.5 217.5T480-80Zm0-480Z" />
  </symbol>
  <symbol id="github" viewBox="0 0 512 512" xmlns="http://www.w3.org/2000/svg">
    <path clip-rule="evenodd" class="path"
      d="M296.133,354.174c49.885-5.891,102.942-24.029,102.942-110.192   c0-24.49-8.624-44.448-22.67-59.869c2.266-5.89,9.515-28.114-2.734-58.947c0,0-18.139-5.898-60.759,22.669   c-18.139-4.983-38.09-8.163-56.682-8.163c-19.053,0-39.011,3.18-56.697,8.163c-43.082-28.567-61.22-22.669-61.22-22.669   c-12.241,30.833-4.983,53.057-2.718,58.947c-14.061,15.42-22.677,35.379-22.677,59.869c0,86.163,53.057,104.301,102.942,110.192   c-6.344,5.452-12.241,15.873-14.507,30.387c-12.702,5.438-45.808,15.873-65.758-18.592c0,0-11.795-21.31-34.012-22.669   c0,0-22.224-0.453-1.813,13.592c0,0,14.96,6.812,24.943,32.653c0,0,13.6,43.089,76.179,29.48v38.543   c0,5.906-4.53,12.702-15.865,10.89C96.139,438.977,32.2,354.626,32.2,255.77c0-123.807,100.216-224.022,224.03-224.022   c123.347,0,224.023,100.216,223.57,224.022c0,98.856-63.946,182.754-152.828,212.688c-11.342,2.266-15.873-4.53-15.873-10.89   V395.45C311.1,374.577,304.288,360.985,296.133,354.174L296.133,354.174z M512,256.23C512,114.73,397.263,0,256.23,0   C114.73,0,0,114.73,0,256.23C0,397.263,114.73,512,256.23,512C397.263,512,512,397.263,512,256.23L512,256.23z"
      fill="currentColor" fill-rule="evenodd" />
  </symbol>
  <symbol id="calendar" viewBox="0 -960 960 960" xmlns="http://www.w3.org/2000/svg">
    <path fill="currentColor" class="path"
      d="M200-80q-33 0-56.5-23.5T120-160v-560q0-33 23.5-56.5T200-800h40v-80h80v80h320v-80h80v80h40q33 0 56.5 23.5T840-720v560q0 33-23.5 56.5T760-80H200Zm0-80h560v-400H200v400Zm0-480h560v-80H200v80Zm0 0v-80 80Zm280 240q-17 0-28.5-11.5T440-440q0-17 11.5-28.5T480-480q17 0 28.5 11.5T520-440q0 17-11.5 28.5T480-400Zm-160 0q-17 0-28.5-11.5T280-440q0-17 11.5-28.5T320-480q17 0 28.5 11.5T360-440q0 17-11.5 28.5T320-400Zm320 0q-17 0-28.5-11.5T600-440q0-17 11.5-28.5T640-480q17 0 28.5 11.5T680-440q0 17-11.5 28.5T640-400ZM480-240q-17 0-28.5-11.5T440-280q0-17 11.5-28.5T480-320q17 0 28.5 11.5T520-280q0 17-11.5 28.5T480-240Zm-160 0q-17 0-28.5-11.5T280-280q0-17 11.5-28.5T320-320q17 0 28.5 11.5T360-280q0 17-11.5 28.5T320-240Zm320 0q-17 0-28.5-11.5T600-280q0-17 11.5-28.5T640-320q17 0 28.5 11.5T680-280q0 17-11.5 28.5T640-240Z" />
  </symbol>
  <symbol id="linkedin" viewBox="0 0 32 32" enable-background="new 0 0 32 32"
    xmlns="http://www.w3.org/2000/svg">
    <path
      d="M32,30c0,1.104-0.896,2-2,2H2c-1.104,0-2-0.896-2-2V2c0-1.104,0.896-2,2-2h28c1.104,0,2,0.896,2,2V30z"
      fill="#007BB5" />
    <rect fill="#FFFFFF" height="14" width="4" x="7" y="11" />
    <path
      d="M20.499,11c-2.791,0-3.271,1.018-3.499,2v-2h-4v14h4v-8c0-1.297,0.703-2,2-2c1.266,0,2,0.688,2,2v8h4v-7    C25,14,24.479,11,20.499,11z"
      fill="#FFFFFF" />
    <circle cx="9" cy="8" fill="#FFFFFF" r="2" />
  </symbol>
  <symbol id="telegram" viewBox="0 0 512 512" xmlns="http://www.w3.org/2000/svg">
    <path fill="#20A0E1"
      d="M484.689,98.231l-69.417,327.37c-5.237,23.105-18.895,28.854-38.304,17.972L271.2,365.631     l-51.034,49.086c-5.646,5.647-10.371,10.372-21.256,10.372l7.598-107.722L402.539,140.23c8.523-7.598-1.848-11.809-13.247-4.21     L146.95,288.614L42.619,255.96c-22.694-7.086-23.104-22.695,4.723-33.579L455.423,65.166     C474.316,58.081,490.85,69.375,484.689,98.231z" />
  </symbol>
  <symbol id="timezone" viewBox="0 0 122.88 119.08" xmlns="http://www.w3.org/2000/svg">
    <path fill="currentColor"
      d="M55.27,0c29.86,0,54.19,23.69,55.23,53.29c-2.28-1.25-4.7-2.29-7.23-3.08c0.08-0.88,0.32-1.11,0.57-2.19 l1.76,0.19c-2.68-19.88-16.6-36.2-35.14-42.37l0,0l-6.81,1.98v-1.8l-1.2,0L62.4,7.69l-2.67,0.73l-0.34,1.25l-3.57-2.94l4.81,0.49 c-0.83-1.13-5.9-3-7.8-3l-1.8,0c-1.94,0-8.05,5.14-10.82,6.6l0.65,3.14l3.5-0.72l0.54,2.58l-2.27-1.41c-0.01,0.01-0.6,1.12-0.6,1.2 c0,1.37,0.2,0.7,0.37,1.96l-8.77,4.04v1.2l0.65-0.4l1.75,4l-5.4,0v6c2.38,0.2,1.45,0.6,3,0.6c2.33,0,2.94-1.12,3.25-3.35l2.89-2.77 l2.93-1.15l4.89,5.13l-1.96,0.94c2.1,2.91,2.16-1.24,2.66-2.68l-3.81-4l0.59-0.58l4.47,3.19l2.08,5.28c0.53-0.3,1.2-0.39,1.2-1.2 c0-1.37-0.2-0.7-0.58-2.33l2.08-0.55l2.09,4.56l4.81-0.47c0,2.38-0.12,5.4-2.4,5.4h-1.2c-3.31,0-4.01-1.2-6.7-1.83l-0.56,2.56 l-5.94-2.53v-4.2l-5.4,0c-1.96,0-1.58,1.8-4.8,1.8l-1.5,0.26l-2.7,2.75v3c-1.96,1.31-4.8,4.69-4.8,7.8v7.2c0,0.85,3.83,7.8,6,7.8 h2.4c2.62,0,2.18-1.2,4.8-1.2h0.6c1.66,0,1.44,0.46,1.8,1.8h2.4v4.8c0,0.76,3,4.91,3,7.8c0,3.13-1.2,3.47-1.2,6 c0,2.98,3,8.99,3,13.2l3.6,0c0.45,0,0.89-0.06,1.32-0.17c1.07,5.55,3.3,10.68,6.43,15.14c-1.36,0.1-2.74,0.15-4.12,0.15 C24.75,110.53,0,85.79,0,55.27C0,24.75,24.75,0,55.27,0L55.27,0L55.27,0z M91.57,56.46c17.29,0,31.31,14.02,31.31,31.31 c0,17.29-14.02,31.31-31.31,31.31s-31.31-14.02-31.31-31.31C60.26,70.48,74.28,56.46,91.57,56.46L91.57,56.46L91.57,56.46z M87.23,74.07h3.83c0.7,0,1.27,0.58,1.27,1.27v12.69h12.43c0.7,0,1.27,0.58,1.27,1.27v3.83c0,0.7-0.58,1.27-1.27,1.27H85.95V75.35 C85.95,74.64,86.52,74.07,87.23,74.07L87.23,74.07L87.23,74.07z M91.57,63.57c13.37,0,24.2,10.83,24.2,24.2 c0,13.37-10.83,24.2-24.2,24.2c-13.37,0-24.2-10.83-24.2-24.2C67.37,74.41,78.2,63.57,91.57,63.57L91.57,63.57L91.57,63.57z M96.16,48.71l-0.56-1.73l-1.48,1.54C94.81,48.57,95.49,48.63,96.16,48.71L96.16,48.71z M85.48,48.91l-0.27-1.52l-1.28,0.93 l-2.9-3.91l-4.33,0.13l-1.66-1.9l-1.7,0.47l-3.34-3.83l-0.64,0.44l2.07,5.29l2.4,0v-1.2l1.2,0c0.87,2.39,1.8,0.97,1.8,2.4 c0,4.99-6.16,8.66-10.2,9.6c0.11,0.48,0.14,0.95,0.3,1.29C72.18,52.9,78.53,49.99,85.48,48.91L85.48,48.91z M10.58,83.82 c-3.26-4.94-5.69-10.47-7.12-16.39l9.73,4.69l0.05,2.9c0,1.07-1.82,3.34-2.4,4.2L10.58,83.82L10.58,83.82L10.58,83.82z" />
  </symbol>
  <style>
    @media (prefers-color-scheme: dark) {
    .path { fill: #f0f0f0 !important; }
    }
</style>
</svg>