<svg width="0" height="0" class="hidden">
  <symbol id="work" viewBox="0 -960 960 960" xmlns="http://www.w3.org/2000/svg">
    <path fill="currentColor"
      d="M160-120q-33 0-56.5-23.5T80-200v-440q0-33 23.5-56.5T160-720h160v-80q0-33 23.5-56.5T400-880h160q33 0 56.5 23.5T640-800v80h160q33 0 56.5 23.5T880-640v440q0 33-23.5 56.5T800-120H160Zm0-80h640v-440H160v440Zm240-520h160v-80H400v80ZM160-200v-440 440Z" />
  </symbol>
  <symbol id="school" viewBox="0 -960 960 960" xmlns="http://www.w3.org/2000/svg">
    <path fill="currentColor"
      d="M480-120 200-272v-240L40-600l440-240 440 240v320h-80v-276l-80 44v240L480-120Zm0-332 274-148-274-148-274 148 274 148Zm0 241 200-108v-151L480-360 280-470v151l200 108Zm0-241Zm0 90Zm0 0Z" />
  </symbol>
  <symbol id="mail" viewBox="0 -960 960 960" xmlns="http://www.w3.org/2000/svg">
    <path fill="currentColor"
      d="M160-160q-33 0-56.5-23.5T80-240v-480q0-33 23.5-56.5T160-800h640q33 0 56.5 23.5T880-720v480q0 33-23.5 56.5T800-160H160Zm320-280L160-640v400h640v-400L480-440Zm0-80 320-200H160l320 200ZM160-640v-80 480-400Z" />
  </symbol>
  <symbol id="location" viewBox="0 -960 960 960" xmlns="http://www.w3.org/2000/svg">
    <path fill="currentColor"
      d="M480-480q33 0 56.5-23.5T560-560q0-33-23.5-56.5T480-640q-33 0-56.5 23.5T400-560q0 33 23.5 56.5T480-480Zm0 294q122-112 181-203.5T720-552q0-109-69.5-178.5T480-800q-101 0-170.5 69.5T240-552q0 71 59 162.5T480-186Zm0 106Q319-217 239.5-334.5T160-552q0-150 96.5-239T480-880q127 0 223.5 89T800-552q0 100-79.5 217.5T480-80Zm0-480Z" />
  </symbol>
  <symbol id="github" xmlns="http://www.w3.org/2000/svg">
    <path fill-rule="evenodd" clip-rule="evenodd"
      d="M48.854 0C21.839 0 0 22 0 49.217c0 21.756 13.993 40.172 33.405 46.69 2.427.49 3.316-1.059 3.316-2.362 0-1.141-.08-5.052-.08-9.127-13.59 2.934-16.42-5.867-16.42-5.867-2.184-5.704-5.42-7.17-5.42-7.17-4.448-3.015.324-3.015.324-3.015 4.934.326 7.523 5.052 7.523 5.052 4.367 7.496 11.404 5.378 14.235 4.074.404-3.178 1.699-5.378 3.074-6.6-10.839-1.141-22.243-5.378-22.243-24.283 0-5.378 1.94-9.778 5.014-13.2-.485-1.222-2.184-6.275.486-13.038 0 0 4.125-1.304 13.426 5.052a46.97 46.97 0 0 1 12.214-1.63c4.125 0 8.33.571 12.213 1.63 9.302-6.356 13.427-5.052 13.427-5.052 2.67 6.763.97 11.816.485 13.038 3.155 3.422 5.015 7.822 5.015 13.2 0 18.905-11.404 23.06-22.324 24.283 1.78 1.548 3.316 4.481 3.316 9.126 0 6.6-.08 11.897-.08 13.526 0 1.304.89 2.853 3.316 2.364 19.412-6.52 33.405-24.935 33.405-46.691C97.707 22 75.788 0 48.854 0z"
      fill="currentColor" />
  </symbol>
  <symbol id="calendar" viewBox="0 -960 960 960" xmlns="http://www.w3.org/2000/svg">
    <path fill="currentColor"
      d="M200-80q-33 0-56.5-23.5T120-160v-560q0-33 23.5-56.5T200-800h40v-80h80v80h320v-80h80v80h40q33 0 56.5 23.5T840-720v560q0 33-23.5 56.5T760-80H200Zm0-80h560v-400H200v400Zm0-480h560v-80H200v80Zm0 0v-80 80Zm280 240q-17 0-28.5-11.5T440-440q0-17 11.5-28.5T480-480q17 0 28.5 11.5T520-440q0 17-11.5 28.5T480-400Zm-160 0q-17 0-28.5-11.5T280-440q0-17 11.5-28.5T320-480q17 0 28.5 11.5T360-440q0 17-11.5 28.5T320-400Zm320 0q-17 0-28.5-11.5T600-440q0-17 11.5-28.5T640-480q17 0 28.5 11.5T680-440q0 17-11.5 28.5T640-400ZM480-240q-17 0-28.5-11.5T440-280q0-17 11.5-28.5T480-320q17 0 28.5 11.5T520-280q0 17-11.5 28.5T480-240Zm-160 0q-17 0-28.5-11.5T280-280q0-17 11.5-28.5T320-320q17 0 28.5 11.5T360-280q0 17-11.5 28.5T320-240Zm320 0q-17 0-28.5-11.5T600-280q0-17 11.5-28.5T640-320q17 0 28.5 11.5T680-280q0 17-11.5 28.5T640-240Z" />
  </symbol>
  <symbol id="linkedin" xmlns="http://www.w3.org/2000/svg">
    <g xmlns="http://www.w3.org/2000/svg" fill="none" fill-rule="evenodd">
      <path
        d="M8,72 L64,72 C68.418278,72 72,68.418278 72,64 L72,8 C72,3.581722 68.418278,-8.11624501e-16 64,0 L8,0 C3.581722,8.11624501e-16 -5.41083001e-16,3.581722 0,8 L0,64 C5.41083001e-16,68.418278 3.581722,72 8,72 Z"
        fill="#007EBB" />
      <path
        d="M62,62 L51.315625,62 L51.315625,43.8021149 C51.315625,38.8127542 49.4197917,36.0245323 45.4707031,36.0245323 C41.1746094,36.0245323 38.9300781,38.9261103 38.9300781,43.8021149 L38.9300781,62 L28.6333333,62 L28.6333333,27.3333333 L38.9300781,27.3333333 L38.9300781,32.0029283 C38.9300781,32.0029283 42.0260417,26.2742151 49.3825521,26.2742151 C56.7356771,26.2742151 62,30.7644705 62,40.051212 L62,62 Z M16.349349,22.7940133 C12.8420573,22.7940133 10,19.9296567 10,16.3970067 C10,12.8643566 12.8420573,10 16.349349,10 C19.8566406,10 22.6970052,12.8643566 22.6970052,16.3970067 C22.6970052,19.9296567 19.8566406,22.7940133 16.349349,22.7940133 Z M11.0325521,62 L21.769401,62 L21.769401,27.3333333 L11.0325521,27.3333333 L11.0325521,62 Z"
        fill="#FFF" />
    </g>
  </symbol>
</svg>